Normalized EMG Linear Envelopes
nRows=38
nColumns=17

endheader
time	        VM	        VL	        RF	       GRA	        TA	   ADDLONG	   SEMIMEM	      BFLH	        GM	        GL	       TFL	   GLUTMAX	   GLUTMED	      PIRI	    OBTINT	        QF	
2.59	  0.114462	  0.147008	  0.800077	  0.185082	  0.369065	  0.128709	  0.052837	  0.051674	  0.071512	  0.030366	  0.303491	  0.143388	  0.141364	  0.226571	  1.273292	  0.027709	
2.5905	  0.114908	  0.147245	  0.800896	  0.184754	  0.369217	  0.127027	  0.052452	  0.051712	  0.072037	  0.030343	  0.302620	  0.145593	  0.144466	  0.228264	  1.287219	  0.027765	
2.591	  0.115342	  0.147475	  0.801664	  0.184451	  0.369395	  0.125357	  0.052077	  0.051751	  0.072574	  0.030333	  0.301733	  0.147813	  0.147616	  0.229983	  1.301038	  0.027830	
2.5915	  0.115765	  0.147696	  0.802381	  0.184173	  0.369598	  0.123702	  0.051712	  0.051791	  0.073122	  0.030336	  0.300829	  0.150048	  0.150815	  0.231728	  1.314740	  0.027904	
2.592	  0.116175	  0.147909	  0.803045	  0.183918	  0.369825	  0.122060	  0.051357	  0.051832	  0.073681	  0.030352	  0.299907	  0.152298	  0.154062	  0.233496	  1.328311	  0.027988	
2.5925	  0.116573	  0.148113	  0.803655	  0.183686	  0.370074	  0.120432	  0.051012	  0.051872	  0.074250	  0.030380	  0.298967	  0.154560	  0.157359	  0.235287	  1.341741	  0.028081	
2.593	  0.116958	  0.148309	  0.804209	  0.183476	  0.370343	  0.118819	  0.050677	  0.051912	  0.074829	  0.030422	  0.298007	  0.156836	  0.160704	  0.237100	  1.355018	  0.028183	
2.5935	  0.117331	  0.148495	  0.804707	  0.183287	  0.370632	  0.117221	  0.050351	  0.051952	  0.075418	  0.030476	  0.297027	  0.159125	  0.164098	  0.238934	  1.368128	  0.028294	
2.594	  0.117690	  0.148673	  0.805148	  0.183119	  0.370937	  0.115638	  0.050035	  0.051992	  0.076016	  0.030543	  0.296025	  0.161425	  0.167542	  0.240787	  1.381061	  0.028415	
2.5945	  0.118036	  0.148841	  0.805529	  0.182971	  0.371258	  0.114070	  0.049727	  0.052030	  0.076623	  0.030624	  0.295000	  0.163737	  0.171034	  0.242660	  1.393803	  0.028544	
2.595	  0.118367	  0.148999	  0.805851	  0.182842	  0.371592	  0.112518	  0.049429	  0.052066	  0.077239	  0.030717	  0.293953	  0.166059	  0.174575	  0.244549	  1.406343	  0.028682	
2.5955	  0.118685	  0.149146	  0.806114	  0.182733	  0.371939	  0.110981	  0.049139	  0.052102	  0.077863	  0.030824	  0.292882	  0.168391	  0.178165	  0.246456	  1.418666	  0.028829	
2.596	  0.118988	  0.149284	  0.806316	  0.182641	  0.372296	  0.109461	  0.048858	  0.052135	  0.078495	  0.030944	  0.291786	  0.170733	  0.181803	  0.248377	  1.430760	  0.028986	
2.5965	  0.119277	  0.149410	  0.806458	  0.182568	  0.372661	  0.107956	  0.048585	  0.052166	  0.079135	  0.031077	  0.290667	  0.173083	  0.185491	  0.250312	  1.442613	  0.029150	
2.597	  0.119550	  0.149526	  0.806539	  0.182512	  0.373032	  0.106469	  0.048320	  0.052195	  0.079782	  0.031224	  0.289523	  0.175441	  0.189227	  0.252261	  1.454211	  0.029324	
2.5975	  0.119808	  0.149630	  0.806559	  0.182473	  0.373409	  0.104998	  0.048062	  0.052220	  0.080436	  0.031384	  0.288354	  0.177806	  0.193011	  0.254221	  1.465541	  0.029506	
2.598	  0.120050	  0.149723	  0.806517	  0.182451	  0.373788	  0.103543	  0.047812	  0.052243	  0.081097	  0.031558	  0.287160	  0.180177	  0.196844	  0.256191	  1.476588	  0.029697	
2.5985	  0.120277	  0.149804	  0.806413	  0.182447	  0.374168	  0.102106	  0.047570	  0.052263	  0.081764	  0.031744	  0.285942	  0.182554	  0.200724	  0.258171	  1.487340	  0.029897	
2.599	  0.120488	  0.149873	  0.806244	  0.182458	  0.374548	  0.100686	  0.047334	  0.052279	  0.082436	  0.031944	  0.284699	  0.184935	  0.204651	  0.260159	  1.497781	  0.030104	
2.5995	  0.120683	  0.149930	  0.806010	  0.182487	  0.374926	  0.099283	  0.047106	  0.052292	  0.083114	  0.032158	  0.283431	  0.187320	  0.208626	  0.262154	  1.507898	  0.030320	
2.6	  0.120862	  0.149975	  0.805711	  0.182532	  0.375301	  0.097898	  0.046884	  0.052302	  0.083797	  0.032385	  0.282138	  0.189707	  0.212648	  0.264154	  1.517674	  0.030545	
2.6005	  0.121025	  0.150007	  0.805345	  0.182593	  0.375671	  0.096530	  0.046669	  0.052308	  0.084484	  0.032625	  0.280819	  0.192097	  0.216716	  0.266158	  1.527095	  0.030777	
2.601	  0.121173	  0.150027	  0.804912	  0.182670	  0.376034	  0.095180	  0.046461	  0.052310	  0.085176	  0.032879	  0.279476	  0.194487	  0.220830	  0.268164	  1.536146	  0.031018	
2.6015	  0.121305	  0.150034	  0.804411	  0.182762	  0.376389	  0.093848	  0.046260	  0.052308	  0.085871	  0.033146	  0.278109	  0.196878	  0.224990	  0.270172	  1.544811	  0.031266	
2.602	  0.121421	  0.150028	  0.803841	  0.182870	  0.376735	  0.092534	  0.046065	  0.052303	  0.086569	  0.033427	  0.276718	  0.199268	  0.229195	  0.272180	  1.553076	  0.031523	
2.6025	  0.121523	  0.150008	  0.803202	  0.182993	  0.377069	  0.091238	  0.045877	  0.052293	  0.087271	  0.033721	  0.275304	  0.201656	  0.233445	  0.274186	  1.560925	  0.031787	
2.603	  0.121608	  0.149974	  0.802494	  0.183130	  0.377390	  0.089961	  0.045695	  0.052280	  0.087975	  0.034028	  0.273868	  0.204042	  0.237739	  0.276191	  1.568345	  0.032058	
2.6035	  0.121679	  0.149926	  0.801715	  0.183281	  0.377698	  0.088701	  0.045519	  0.052262	  0.088680	  0.034348	  0.272411	  0.206425	  0.242076	  0.278191	  1.575323	  0.032337	
2.604	  0.121735	  0.149863	  0.800867	  0.183445	  0.377990	  0.087460	  0.045349	  0.052241	  0.089388	  0.034682	  0.270933	  0.208804	  0.246456	  0.280188	  1.581846	  0.032624	
2.6045	  0.121775	  0.149787	  0.799947	  0.183622	  0.378264	  0.086236	  0.045185	  0.052216	  0.090096	  0.035028	  0.269436	  0.211178	  0.250878	  0.282178	  1.587902	  0.032917	
2.605	  0.121801	  0.149695	  0.798956	  0.183812	  0.378520	  0.085031	  0.045027	  0.052186	  0.090805	  0.035388	  0.267921	  0.213545	  0.255342	  0.284163	  1.593482	  0.033217	
2.6055	  0.121811	  0.149588	  0.797892	  0.184013	  0.378756	  0.083845	  0.044876	  0.052153	  0.091515	  0.035761	  0.266388	  0.215906	  0.259846	  0.286139	  1.598576	  0.033524	
2.606	  0.121808	  0.149466	  0.796755	  0.184225	  0.378971	  0.082676	  0.044730	  0.052116	  0.092224	  0.036147	  0.264838	  0.218258	  0.264390	  0.288107	  1.603177	  0.033838	
2.6065	  0.121789	  0.149328	  0.795544	  0.184447	  0.379163	  0.081526	  0.044590	  0.052075	  0.092932	  0.036546	  0.263272	  0.220601	  0.268973	  0.290066	  1.607281	  0.034158	
2.607	  0.121757	  0.149174	  0.794259	  0.184679	  0.379331	  0.080393	  0.044456	  0.052030	  0.093640	  0.036957	  0.261691	  0.222933	  0.273594	  0.292013	  1.610884	  0.034485	
2.6075	  0.121710	  0.149004	  0.792899	  0.184920	  0.379473	  0.079279	  0.044329	  0.051982	  0.094347	  0.037382	  0.260097	  0.225254	  0.278253	  0.293948	  1.613983	  0.034817	
2.608	  0.121648	  0.148818	  0.791466	  0.185169	  0.379588	  0.078183	  0.044208	  0.051930	  0.095052	  0.037819	  0.258490	  0.227563	  0.282948	  0.295870	  1.616578	  0.035156	
2.6085	  0.121573	  0.148615	  0.789958	  0.185426	  0.379675	  0.077106	  0.044093	  0.051875	  0.095755	  0.038269	  0.256871	  0.229857	  0.287679	  0.297776	  1.618668	  0.035500	
